HIERARCHY
ROOT Hips
{
	OFFSET 0.000000  0.463670  0.080341
	CHANNELS 6 Xposition Yposition Zposition Zrotation Yrotation Xrotation 
	JOINT LHipJoint
	{
		OFFSET 0 0 0
		CHANNELS 3 Zrotation Yrotation Xrotation
		JOINT LeftUpLeg
		{
			OFFSET 0.949434 -0.248378 0.086503
			CHANNELS 3 Zrotation Yrotation Xrotation
			JOINT LeftLeg
			{
				OFFSET -0.076513 -3.879421 -0.177038
				CHANNELS 3 Zrotation Yrotation Xrotation
				JOINT LeftFoot
				{
					OFFSET -0.188964 -3.680973 -0.122632
					CHANNELS 3 Zrotation Yrotation Xrotation
					JOINT LeftToeBase
					{
						OFFSET 0.055451 -0.524480 1.120382
						CHANNELS 3 Zrotation Yrotation Xrotation
						End Site
						{
							OFFSET 0.007944 -0.006006 0.139660
						}
					}
				}
			}
		}
	}
	JOINT RHipJoint
	{
		OFFSET 0 0 0
		CHANNELS 3 Zrotation Yrotation Xrotation
		JOINT RightUpLeg
		{
			OFFSET -0.949434 -0.248378 0.086503
			CHANNELS 3 Zrotation Yrotation Xrotation
			JOINT RightLeg
			{
				OFFSET 0.076513 -3.879421 -0.177038
				CHANNELS 3 Zrotation Yrotation Xrotation
				JOINT RightFoot
				{
					OFFSET 0.188964 -3.680973 -0.122632
					CHANNELS 3 Zrotation Yrotation Xrotation
					JOINT RightToeBase
					{
						OFFSET -0.055451 -0.524480 1.120382
						CHANNELS 3 Zrotation Yrotation Xrotation
						End Site
						{
							OFFSET -0.007944 -0.006006 0.139660
						}
					}
				}
			}
		}
	}
	JOINT LowerBack
	{
		OFFSET 0 0 0
		CHANNELS 3 Zrotation Yrotation Xrotation
		JOINT Spine
		{
			OFFSET 0.000000 0.677144 0.028277
			CHANNELS 3 Zrotation Yrotation Xrotation
			JOINT Spine1
			{
				OFFSET 0.000000 2.156116 -0.508617
				CHANNELS 3 Zrotation Yrotation Xrotation
				JOINT Neck
				{
					OFFSET 0 0 0
					CHANNELS 3 Zrotation Yrotation Xrotation
					JOINT Neck1
					{
						OFFSET 0.000000 1.781871 0.216275
						CHANNELS 3 Zrotation Yrotation Xrotation
						JOINT Head
						{
							OFFSET 0.000000 1.015906 -0.026879
							CHANNELS 3 Zrotation Yrotation Xrotation
							End Site
							{
								OFFSET 0.000000 0.339197 0.983632
							}
						}
					}
				}
				JOINT LeftShoulder
				{
					OFFSET 0 0 0
					CHANNELS 3 Zrotation Yrotation Xrotation
					JOINT LeftArm
					{
						OFFSET 1.565866 1.184736 0.289545
						CHANNELS 3 Zrotation Yrotation Xrotation
						JOINT LeftForeArm
						{
							OFFSET 1.930940 -0.176441 -0.109244
							CHANNELS 3 Zrotation Yrotation Xrotation
							JOINT LeftHand
							{
								OFFSET 2.263412 -0.058986 0.122483
								CHANNELS 3 Zrotation Yrotation Xrotation
								JOINT LeftFingerBase
								{
									OFFSET 0 0 0
									CHANNELS 3 Zrotation Yrotation Xrotation
									JOINT LeftHandIndex1
									{
										OFFSET 0.944218 0.017559 0.358417
										CHANNELS 3 Zrotation Yrotation Xrotation
										End Site
										{
											OFFSET 0.237801 -0.022714 0.035813
										}
									}
								}
								JOINT LThumb
								{
									OFFSET 0 0 0
									CHANNELS 3 Zrotation Yrotation Xrotation
									End Site
									{
										OFFSET 0.234930 -0.092931 0.244282
									}
								}
							}
						}
					}
				}
				JOINT RightShoulder
				{
					OFFSET 0 0 0
					CHANNELS 3 Zrotation Yrotation Xrotation
					JOINT RightArm
					{
						OFFSET -1.565866 1.184736 0.289545
						CHANNELS 3 Zrotation Yrotation Xrotation
						JOINT RightForeArm
						{
							OFFSET -1.930940 -0.176441 -0.109244
							CHANNELS 3 Zrotation Yrotation Xrotation
							JOINT RightHand
							{
								OFFSET -2.263412 -0.058986 0.122483
								CHANNELS 3 Zrotation Yrotation Xrotation
								JOINT RightFingerBase
								{
									OFFSET 0 0 0
									CHANNELS 3 Zrotation Yrotation Xrotation
									JOINT RightHandIndex1
									{
										OFFSET -0.944218 0.017559 0.358417
										CHANNELS 3 Zrotation Yrotation Xrotation
										End Site
										{
											OFFSET -0.237801 -0.022714 0.035813
										}
									}
								}
								JOINT RThumb
								{
									OFFSET 0 0 0
									CHANNELS 3 Zrotation Yrotation Xrotation
									End Site
									{
										OFFSET -0.234930 -0.092931 0.244282
									}
								}
							}
						}
					}
				}
			}
		}
	}
}
MOTION
Frames: 5
Frame Time: .0083333
6.464053 8.695684 5.784526 5.878700 -14.075700 -8.572900 0.000000 0.000000 0.000000 7.113300 -13.349000 -49.347301 17.252199 19.818001 81.942497 0.292600 -6.032200 -9.885300 0.946000 6.194300 17.349199 0.000000 0.000000 0.000000 -22.796200 6.541300 -50.518902 -16.236799 -19.657000 78.936401 -0.334900 8.982800 -11.270900 -0.794000 -5.687700 15.881000 -4.781900 0.295000 19.889200 -2.094600 -0.810100 3.897300 0.671400 -0.332300 -6.863100 -2.268200 -1.714500 20.077700 7.554000 -0.652400 -61.834000 3.737600 -1.053800 -25.797001 0.000000 0.000000 0.000000 -66.639503 -69.507797 43.425201 21.812401 -32.764301 -6.484000 -0.000000 0.000000 -18.630699 27.454201 -24.899700 -12.338900 -7.125000 0.000000 -0.000000 -1.261100 2.372100 1.208100 0.000000 0.000000 0.000000 94.346802 68.496498 53.992500 -21.440300 32.338699 -6.283800 0.000000 -0.000000 -32.764999 -16.578899 -42.594299 11.392100 7.125000 -0.000000 -0.000000 32.367699 -71.451401 -21.049801
6.474210 8.750789 5.791790 5.746200 -14.754400 -9.433700 0.000000 0.000000 0.000000 7.035600 -12.510300 -47.709599 16.889299 19.766399 80.870903 0.245400 -5.493300 -9.044300 0.947700 6.199800 17.365200 0.000000 0.000000 0.000000 -22.171801 6.303300 -48.893002 -15.764200 -19.564301 77.528297 -0.227900 9.114900 -9.936600 -0.858900 -5.910200 16.524000 -4.590800 0.533700 18.997101 -2.003900 -0.417400 3.232800 0.559300 -0.130700 -7.124900 -2.213600 -1.805700 19.729099 7.425800 -0.818700 -62.745800 3.745200 -1.111300 -26.174801 -0.000000 0.000000 0.000000 -60.612999 -73.373802 40.594601 23.690001 -34.834702 -7.528800 -0.000000 0.000000 -19.203699 29.223801 -24.718800 -13.166600 -7.125000 0.000000 -0.000000 -0.163000 2.168900 0.156700 -0.000000 0.000000 0.000000 96.400703 73.310699 58.177399 -22.979099 34.065899 -7.126600 0.000000 -0.000000 -34.372101 -16.912001 -41.900101 11.478200 7.125000 -0.000000 -0.000000 30.658001 -71.011200 -19.584999
6.482421 8.822053 5.813632 5.702400 -15.460200 -10.326400 0.000000 0.000000 0.000000 6.831600 -11.611900 -45.804100 16.448500 19.694901 79.565002 0.198100 -4.913800 -8.120000 0.930100 6.143800 17.202200 0.000000 0.000000 0.000000 -21.620899 5.859200 -47.037701 -15.211100 -19.441000 75.871902 -0.118500 9.275300 -8.450000 -0.925600 -6.129100 17.159599 -4.359100 0.819900 17.967100 -1.952300 0.048200 2.489800 0.369000 0.104600 -7.391900 -2.174900 -1.909600 19.323700 7.194500 -1.049500 -63.344501 3.694300 -1.176800 -26.381100 0.000000 -0.000000 0.000000 -52.048698 -76.525497 34.762501 25.247999 -36.456402 -8.436800 -0.000000 0.000000 -20.306700 28.942200 -25.497601 -13.389900 -7.125000 0.000000 -0.000000 -0.454700 1.390600 0.443500 0.000000 -0.000000 0.000000 97.904999 77.751297 61.768600 -24.334101 35.515598 -7.899800 0.000000 -0.000000 -35.305000 -17.140301 -40.903900 11.417100 7.125000 -0.000000 -0.000000 28.618601 -70.271400 -17.755600
6.487473 8.913631 5.850211 5.725200 -16.122900 -11.412600 0.000000 0.000000 0.000000 6.464500 -10.629500 -43.377399 15.898100 19.591700 77.928001 0.152400 -4.276900 -7.112400 0.908200 6.073000 16.996300 0.000000 0.000000 0.000000 -21.114201 5.136200 -44.682301 -14.545700 -19.271299 73.864403 -0.005500 9.513000 -6.765100 -1.024300 -6.438100 18.060900 -4.091600 1.146500 16.897301 -1.927400 0.572200 1.722700 0.123000 0.365000 -7.653600 -2.148300 -2.009800 18.886400 6.859600 -1.314500 -63.617100 3.578600 -1.239200 -26.409401 0.000000 -0.000000 0.000000 -41.315601 -78.749802 26.282301 26.466801 -37.665901 -9.171400 -0.000000 0.000000 -21.908001 26.785299 -27.377701 -13.069200 -7.125000 0.000000 -0.000000 -2.032000 -0.121600 2.037600 0.000000 -0.000000 0.000000 98.082802 81.829201 63.989601 -25.343901 36.553398 -8.493900 0.000000 -0.000000 -35.453098 -17.382500 -39.564301 11.276500 7.125000 -0.000000 -0.000000 26.178101 -69.218201 -15.564800
6.488000 9.029105 5.901316 5.734200 -16.634001 -12.814700 0.000000 0.000000 0.000000 5.973700 -9.577500 -40.226200 15.217100 19.442499 75.889801 0.109400 -3.557100 -6.013200 0.901400 6.050800 16.931900 0.000000 0.000000 0.000000 -20.606701 4.037200 -41.582401 -13.733200 -19.031099 71.388000 0.108800 9.803900 -4.821300 -1.221500 -7.010100 19.745300 -3.774600 1.474000 15.871400 -1.895300 1.103000 0.973800 -0.137300 0.624500 -7.907300 -2.129100 -2.085100 18.472599 6.440400 -1.568400 -63.594200 3.405700 -1.284100 -26.290199 -0.000000 -0.000000 0.000000 -30.524502 -79.954102 17.475401 27.427601 -38.583900 -9.764600 -0.000000 0.000000 -23.638599 23.581800 -29.867901 -12.264300 -7.125000 0.000000 -0.000000 -4.277400 -2.012300 4.437200 -0.000000 -0.000000 0.000000 94.174599 85.446701 62.083500 -25.938400 37.147800 -8.850400 0.000000 -0.000000 -34.646702 -17.565001 -38.166698 11.067900 7.125000 -0.000000 -0.000000 23.964300 -68.058800 -13.573300
